<svg version="1.1" baseProfile="full" width="1167.0" height="897.0" viewbox="0 0 1167 897" xmlns="http://www.w3.org/2000/svg" xmlns:xlink="http://www.w3.org/1999/xlink" xmlns:ev="http://www.w3.org/2001/xml-events">
		<desc >[&lt;start&gt;st]-&gt;[&lt;input&gt;input]
	[&lt;input&gt; input]-&gt;[&lt;package&gt; Time  Series|Decomposition]
	[&lt;package&gt; Time  Series|Decomposition]-&gt;[&lt;component&gt; Mean/Level]
	[&lt;package&gt; Time  Series|Decomposition]-&gt;[&lt;component&gt; Slope/Trend]
	[&lt;package&gt; Time  Series|Decomposition]-&gt;[&lt;component&gt; Seasonal]
	
	//Simple Exponential Smoothing
	[&lt;component&gt; Mean/Level]-&gt;[Delay A1]
	[Delay A1]-&gt;[Delay A2]
	[Delay A2]-&gt;[Delay A3]
	[Delay A3]...-&gt;...[Delay AN]
	[Delay A1]-&gt;[&lt;state&gt; A1]
	[Delay A2]-&gt;[&lt;state&gt; A2]
	[Delay A3]-&gt;[&lt;state&gt; A3]
	[Delay AN]-&gt;[&lt;state&gt; AN]
	[&lt;state&gt; AN]---([&lt;note&gt; $$alpha(1-alpha)^i$$]
	
	[&lt;state&gt; A1]-&gt;[&lt;state&gt; Add1]
	[&lt;state&gt; A2]-&gt;[&lt;state&gt; Add1]
	[&lt;state&gt; A3]-&gt;[&lt;state&gt; Add1]
	[&lt;state&gt; AN]-&gt;[&lt;state&gt; Add1]
	[&lt;state&gt; Add1]-&gt;[&lt;end&gt; Output]
	
	//Holt 
	[&lt;component&gt; Slope/Trend]-&gt;[Delay B1]
	[Delay B1]-&gt;[Delay B2]
	[Delay B2]-&gt;[Delay B3]
	[Delay B3]...-&gt;...[Delay BN]
	[Delay B1]-&gt;[&lt;state&gt; B1]
	[Delay B2]-&gt;[&lt;state&gt; B2]
	[Delay B3]-&gt;[&lt;state&gt; B3]
	[Delay BN]-&gt;[&lt;state&gt; BN]
	[&lt;state&gt; BN]---([&lt;note&gt; $$beta(1-beta)^i$$]
	[&lt;state&gt; B1]-&gt;[&lt;state&gt; Add2]
	[&lt;state&gt; B2]-&gt;[&lt;state&gt; Add2]
	[&lt;state&gt; B3]-&gt;[&lt;state&gt; Add2]
	[&lt;state&gt; BN]-&gt;[&lt;state&gt; Add2]
	[&lt;state&gt; Add2]-&gt;[&lt;end&gt; Output]
	
	// Holt Winters
	[&lt;component&gt; Seasonal]-&gt;[Delay C1]
	[Delay C1]-&gt;[Delay C2]
	[Delay C2]-&gt;[Delay C3]
	[Delay C3]...-&gt;...[Delay CN]
	[Delay C1]-&gt;[&lt;state&gt; C1]
	[Delay C2]-&gt;[&lt;state&gt; C2]
	[Delay C3]-&gt;[&lt;state&gt; C3]
	[Delay CN]-&gt;[&lt;state&gt; CN]
	[&lt;state&gt; C1]-&gt;[&lt;state&gt; Add3]
	[&lt;state&gt; C2]-&gt;[&lt;state&gt; Add3]
	[&lt;state&gt; C3]-&gt;[&lt;state&gt; Add3]
	[&lt;state&gt; CN]-&gt;[&lt;state&gt; Add3]
	[&lt;state&gt; Add3]-&gt;[&lt;end&gt; Output]
	
	// Final Output
	[&lt;end&gt; Output]-&gt;[&lt;receiver&gt; Forecast]
	
	
	
	
	</desc>
	<g stroke-width="1.0" text-align="left" font="12pt Helvetica, Arial, sans-serif" font-size="12pt" font-family="Helvetica" font-weight="bold" font-style="normal">
			<g transform="translate(0.5, 0.5)" font-family="Helvetica" font-size="12pt" font-weight="bold" font-style="normal" stroke-width="3.0" stroke-linejoin="round" stroke-linecap="round" stroke="#33322E">
				<g stroke="transparent" fill="transparent">
					<rect x="0.0" y="0.0" height="897.0" width="1167.0" stroke="none"></rect>
				</g>
			<g transform="translate(8, 8)" fill="#33322E">
					<g transform="translate(20, 20)" fill="#33322E" font-family="Helvetica" font-size="12pt" font-weight="normal" font-style="normal">
						<path d="M640.0 30.0 L640 50 L640 63.333333333333336 L640.0 63.3 " fill="none"></path>
					<path d="M634.7 56.7 L640.0 63.3 L645.3 56.7 L640.0 70.0 Z"></path>
					<path d="M640.0 101.0 L640 121 L640 134.33333333333334 L640.0 134.3 " fill="none"></path>
					<path d="M634.7 127.7 L640.0 134.3 L645.3 127.7 L640.0 141.0 Z"></path>
					<path d="M579.0 179.2 L208.5 223 L208.5 236.33333333333334 L208.5 236.3 " fill="none"></path>
					<path d="M203.2 229.7 L208.5 236.3 L213.8 229.7 L208.5 243.0 Z"></path>
					<path d="M640.0 203.0 L640 223 L640 236.33333333333334 L640.0 236.3 " fill="none"></path>
					<path d="M634.7 229.7 L640.0 236.3 L645.3 229.7 L640.0 243.0 Z"></path>
					<path d="M701.0 180.3 L1015.5 223 L1015.5 236.33333333333334 L1015.5 236.3 " fill="none"></path>
					<path d="M1010.2 229.7 L1015.5 236.3 L1020.8 229.7 L1015.5 243.0 Z"></path>
					<path d="M208.5 274.0 L208.5 294 L208.5 307.3333333333333 L208.5 307.3 " fill="none"></path>
					<path d="M203.2 300.7 L208.5 307.3 L213.8 300.7 L208.5 314.0 Z"></path>
					<path d="M190.6 345.0 L167.5 365 L167.5 378.3333333333333 L167.5 378.3 " fill="none"></path>
					<path d="M162.2 371.7 L167.5 378.3 L172.8 371.7 L167.5 385.0 Z"></path>
					<path d="M149.6 416.0 L126.5 436 L126.5 449.3333333333333 L126.5 449.3 " fill="none"></path>
					<path d="M121.2 442.7 L126.5 449.3 L131.8 442.7 L126.5 456.0 Z"></path>
					<text x="117.3" y="507.0" stroke="none">...</text>
					<text x="65.7" y="519.0" stroke="none">...</text>
					<path d="M109.3 487.0 L87 507 L87 520.3333333333334 L87.0 520.3 " fill="none"></path>
					<path d="M81.7 513.7 L87.0 520.3 L92.3 513.7 L87.0 527.0 Z"></path>
					<path d="M250.5 337.2 L403 365 L403 400.5 L403 400.5 L403 436 L403 436 L403 471.5 L403 471.5 L403 507 L403 507 L403 542.5 L403 542.5 L403 578 L403 578 L403 591.3333333333334 L403.0 591.3 " fill="none"></path>
					<path d="M397.7 584.7 L403.0 591.3 L408.3 584.7 L403.0 598.0 Z"></path>
					<path d="M209.5 410.0 L324 436 L324 471.5 L324 471.5 L324 507 L324 507 L324 542.5 L324 542.5 L324 578 L324 578 L324 591.3333333333334 L324.0 591.3 " fill="none"></path>
					<path d="M318.7 584.7 L324.0 591.3 L329.3 584.7 L324.0 598.0 Z"></path>
					<path d="M168.5 484.1 L245 507 L245 542.5 L245 542.5 L245 578 L245 578 L245 591.3333333333334 L245.0 591.3 " fill="none"></path>
					<path d="M239.7 584.7 L245.0 591.3 L250.3 584.7 L245.0 598.0 Z"></path>
					<path d="M87.0 558.0 L87 578 L87 591.3333333333334 L87.0 591.3 " fill="none"></path>
					<path d="M81.7 584.7 L87.0 591.3 L92.3 584.7 L87.0 598.0 Z"></path>
					<g stroke-dasharray="6 6">
							<path d="M87.0 629.0 L87 649 L87 654.3333333333334 L87.0 654.3 " fill="none"></path>
						</g>
					<path d="M95.0 654.3 L94.7 656.6 L93.7 658.7 L92.2 660.4 L90.3 661.6 L88.1 662.3 L85.9 662.3 L83.7 661.6 L81.8 660.4 L80.3 658.7 L79.3 656.6 L79.0 654.3" fill="none"></path>
					<path d="M87.0 662.3 L87.0 669.0" fill="none"></path>
					<path d="M403.0 629.0 L403 649 L320.3794744191227 674.0686210095824 L320.4 674.1 " fill="none"></path>
					<path d="M325.2 667.0 L320.4 674.1 L328.3 677.2 L314.0 676.0 Z"></path>
					<path d="M324.0 629.0 L324 649 L307.4631189707741 664.4489283299348 L307.5 664.4 " fill="none"></path>
					<path d="M308.7 656.0 L307.5 664.4 L316.0 663.8 L302.6 669.0 Z"></path>
					<path d="M245.0 629.0 L245 649 L263.05863691168156 664.6361368381633 L263.1 664.6 " fill="none"></path>
					<path d="M254.5 664.3 L263.1 664.6 L261.5 656.2 L268.1 669.0 Z"></path>
					<path d="M106.5 620.7 L183.5 649 L251.70045827592807 672.6206465248335 L251.7 672.6 " fill="none"></path>
					<path d="M243.7 675.5 L251.7 672.6 L247.1 665.4 L258.0 674.8 Z"></path>
					<path d="M286.0 700.0 L286 720 L630.3636084918345 752.9309461672519 L630.4 752.9 " fill="none"></path>
					<path d="M623.2 757.6 L630.4 752.9 L624.2 747.0 L637.0 753.6 Z"></path>
					<path d="M640.0 274.0 L640 294 L640 307.3333333333333 L640.0 307.3 " fill="none"></path>
					<path d="M634.7 300.7 L640.0 307.3 L645.3 300.7 L640.0 314.0 Z"></path>
					<path d="M622.1 345.0 L599 365 L599 378.3333333333333 L599.0 378.3 " fill="none"></path>
					<path d="M593.7 371.7 L599.0 378.3 L604.3 371.7 L599.0 385.0 Z"></path>
					<path d="M581.1 416.0 L558 436 L558 449.3333333333333 L558.0 449.3 " fill="none"></path>
					<path d="M552.7 442.7 L558.0 449.3 L563.3 442.7 L558.0 456.0 Z"></path>
					<text x="547.7" y="507.0" stroke="none">...</text>
					<text x="494.7" y="519.0" stroke="none">...</text>
					<path d="M539.7 487.0 L516 507 L516 520.3333333333334 L516.0 520.3 " fill="none"></path>
					<path d="M510.7 513.7 L516.0 520.3 L521.3 513.7 L516.0 527.0 Z"></path>
					<path d="M682.0 341.1 L769 365 L769 400.5 L769 400.5 L769 436 L769 436 L769 471.5 L769 471.5 L769 507 L769 507 L769 542.5 L769 542.5 L769 578 L769 578 L769 591.3333333333334 L769.0 591.3 " fill="none"></path>
					<path d="M763.7 584.7 L769.0 591.3 L774.3 584.7 L769.0 598.0 Z"></path>
					<path d="M638.7 416.0 L690 436 L690 471.5 L690 471.5 L690 507 L690 507 L690 542.5 L690 542.5 L690 578 L690 578 L690 591.3333333333334 L690.0 591.3 " fill="none"></path>
					<path d="M684.7 584.7 L690.0 591.3 L695.3 584.7 L690.0 598.0 Z"></path>
					<path d="M581.1 487.0 L611 507 L611 542.5 L611 542.5 L611 578 L611 578 L611 591.3333333333334 L611.0 591.3 " fill="none"></path>
					<path d="M605.7 584.7 L611.0 591.3 L616.3 584.7 L611.0 598.0 Z"></path>
					<path d="M516.0 558.0 L516 578 L516 591.3333333333334 L516.0 591.3 " fill="none"></path>
					<path d="M510.7 584.7 L516.0 591.3 L521.3 584.7 L516.0 598.0 Z"></path>
					<g stroke-dasharray="6 6">
							<path d="M498.8 629.0 L476.5 649 L476.5 654.3333333333334 L476.5 654.3 " fill="none"></path>
						</g>
					<path d="M484.5 654.3 L484.2 656.6 L483.2 658.7 L481.7 660.4 L479.8 661.6 L477.6 662.3 L475.4 662.3 L473.2 661.6 L471.3 660.4 L469.8 658.7 L468.8 656.6 L468.5 654.3" fill="none"></path>
					<path d="M476.5 662.3 L476.5 669.0" fill="none"></path>
					<path d="M769.0 629.0 L769 649 L706.2605650069708 671.9613396108509 L706.3 672.0 " fill="none"></path>
					<path d="M710.7 664.7 L706.3 672.0 L714.4 674.7 L700.0 674.3 Z"></path>
					<path d="M690.0 629.0 L690 649 L682.8740304684272 663.0539954650463 L682.9 663.1 " fill="none"></path>
					<path d="M681.1 654.7 L682.9 663.1 L690.6 659.5 L679.9 669.0 Z"></path>
					<path d="M611.0 629.0 L611 649 L639.6042482276953 665.6467346243145 L639.6 665.6 " fill="none"></path>
					<path d="M631.2 666.9 L639.6 665.6 L636.5 657.7 L645.4 669.0 Z"></path>
					<path d="M530.6 629.0 L549.5 649 L637.59678962134 674.5300900535311 L637.6 674.5 " fill="none"></path>
					<path d="M629.7 677.8 L637.6 674.5 L632.7 667.6 L644.0 676.4 Z"></path>
					<path d="M672.0 700.0 L672 720 L663.8790214938075 734.2117123858369 L663.9 734.2 " fill="none"></path>
					<path d="M662.6 725.8 L663.9 734.2 L671.8 731.1 L660.6 740.0 Z"></path>
					<path d="M1015.5 274.0 L1015.5 294 L1015.5 307.3333333333333 L1015.5 307.3 " fill="none"></path>
					<path d="M1010.2 300.7 L1015.5 307.3 L1020.8 300.7 L1015.5 314.0 Z"></path>
					<path d="M997.6 345.0 L974.5 365 L974.5 378.3333333333333 L974.5 378.3 " fill="none"></path>
					<path d="M969.2 371.7 L974.5 378.3 L979.8 371.7 L974.5 385.0 Z"></path>
					<path d="M954.6 416.0 L929 436 L929 449.3333333333333 L929.0 449.3 " fill="none"></path>
					<path d="M923.7 442.7 L929.0 449.3 L934.3 442.7 L929.0 456.0 Z"></path>
					<text x="903.4" y="507.0" stroke="none">...</text>
					<text x="830.7" y="519.0" stroke="none">...</text>
					<path d="M895.4 487.0 L852 507 L852 520.3333333333334 L852.0 520.3 " fill="none"></path>
					<path d="M846.7 513.7 L852.0 520.3 L857.3 513.7 L852.0 527.0 Z"></path>
					<path d="M1049.3 345.0 L1093 365 L1093 400.5 L1093 400.5 L1093 436 L1093 436 L1093 471.5 L1093 471.5 L1093 507 L1093 507 L1093 542.5 L1093 542.5 L1093 578 L1093 578 L1093 591.3333333333334 L1093.0 591.3 " fill="none"></path>
					<path d="M1087.7 584.7 L1093.0 591.3 L1098.3 584.7 L1093.0 598.0 Z"></path>
					<path d="M991.7 416.0 L1014 436 L1014 471.5 L1014 471.5 L1014 507 L1014 507 L1014 542.5 L1014 542.5 L1014 578 L1014 578 L1014 591.3333333333334 L1014.0 591.3 " fill="none"></path>
					<path d="M1008.7 584.7 L1014.0 591.3 L1019.3 584.7 L1014.0 598.0 Z"></path>
					<path d="M931.6 487.0 L935 507 L935 542.5 L935 542.5 L935 578 L935 578 L935 591.3333333333334 L935.0 591.3 " fill="none"></path>
					<path d="M929.7 584.7 L935.0 591.3 L940.3 584.7 L935.0 598.0 Z"></path>
					<path d="M852.0 558.0 L852 578 L852 591.3333333333334 L852.0 591.3 " fill="none"></path>
					<path d="M846.7 584.7 L852.0 591.3 L857.3 584.7 L852.0 598.0 Z"></path>
					<path d="M1093.0 629.0 L1093 649 L1010.3794744191226 674.0686210095824 L1010.4 674.1 " fill="none"></path>
					<path d="M1015.2 667.0 L1010.4 674.1 L1018.3 677.2 L1004.0 676.0 Z"></path>
					<path d="M1014.0 629.0 L1014 649 L997.4631189707741 664.4489283299348 L997.5 664.4 " fill="none"></path>
					<path d="M998.7 656.0 L997.5 664.4 L1006.0 663.8 L992.6 669.0 Z"></path>
					<path d="M935.0 629.0 L935 649 L953.0586369116816 664.6361368381633 L953.1 664.6 " fill="none"></path>
					<path d="M944.5 664.3 L953.1 664.6 L951.5 656.2 L958.1 669.0 Z"></path>
					<path d="M852.0 629.0 L852 649 L941.5908164835506 674.6489837513391 L941.6 674.6 " fill="none"></path>
					<path d="M933.7 677.9 L941.6 674.6 L936.6 667.7 L948.0 676.5 Z"></path>
					<path d="M976.0 700.0 L976 720 L673.628106043169 752.663630520028 L673.6 752.7 " fill="none"></path>
					<path d="M679.7 746.6 L673.6 752.7 L680.8 757.3 L667.0 753.4 Z"></path>
					<path d="M652.0 770.0 L652 790 L652 803.3333333333334 L652.0 803.3 " fill="none"></path>
					<path d="M646.7 796.7 L652.0 803.3 L657.3 796.7 L652.0 810.0 Z"></path>
					<g data-name="Time  Series">
							<g fill="#eee8d5" stroke="#33322E" data-name="Time  Series">
								<rect x="579.0" y="172.0" height="31.0" width="122.0" data-name="Time  Series"></rect>
							<path d="M579.0 172.0 L579.0 141.0 L684.2 141.0 L684.2 172.0 Z" data-name="Time  Series"></path>
							<path d="M579.0 172.0 L701.0 172.0" fill="none" data-name="Time  Series"></path>
							</g>
						<g transform="translate(579, 141)" font-family="Helvetica" font-size="12pt" font-weight="normal" font-style="normal" data-name="Time  Series">
								<g transform="translate(8, 8)" fill="#33322E" text-align="left" data-name="Time  Series">
									<text x="0.0" y="13.5" stroke="none" data-name="Time  Series">Time  Series</text>
								
								</g>
							</g>
						<g transform="translate(579, 172)" font-family="Helvetica" font-size="12pt" font-weight="normal" font-style="normal" data-name="Time  Series">
								<g transform="translate(8, 8)" fill="#33322E" text-align="left" data-name="Time  Series">
									<text x="0.0" y="13.5" stroke="none" data-name="Time  Series">Decomposition</text>
								
								</g>
							</g>
						</g>
					<g data-name="st">
							<g fill="#33322E" stroke="#33322E" data-name="st">
								<circle r="12.0" cx="640.0" cy="15.0" stroke="none" data-name="st"></circle>
							</g>
						</g>
					<g data-name="input">
							<g fill="#eee8d5" stroke="#33322E" data-name="input">
								<path d="M621.0 70.0 L668.0 70.0 L660.0 101.0 L613.0 101.0 Z" data-name="input"></path>
							</g>
						<g transform="translate(613, 70)" font-family="Helvetica" font-size="12pt" font-weight="normal" font-style="normal" data-name="input">
								<g transform="translate(8, 8)" fill="#33322E" text-align="center" data-name="input">
									<text x="19.5" y="13.5" stroke="none" text-anchor="middle" data-name="input">input</text>
								
								</g>
							</g>
						</g>
					<g data-name="Mean/Level">
							<g fill="#eee8d5" stroke="#33322E" data-name="Mean/Level">
								<rect x="158.0" y="243.0" height="31.0" width="102.0" data-name="Mean/Level"></rect>
							</g>
						<g transform="translate(158, 243)" font-family="Helvetica" font-size="12pt" font-weight="bold" font-style="normal" data-name="Mean/Level">
								<g transform="translate(8, 8)" fill="#33322E" text-align="center" data-name="Mean/Level">
									<text x="43.0" y="13.5" stroke="none" text-anchor="middle" data-name="Mean/Level">Mean/Level</text>
								
								</g>
							</g>
						</g>
					<g data-name="Slope/Trend">
							<g fill="#eee8d5" stroke="#33322E" data-name="Slope/Trend">
								<rect x="586.0" y="243.0" height="31.0" width="108.0" data-name="Slope/Trend"></rect>
							</g>
						<g transform="translate(586, 243)" font-family="Helvetica" font-size="12pt" font-weight="bold" font-style="normal" data-name="Slope/Trend">
								<g transform="translate(8, 8)" fill="#33322E" text-align="center" data-name="Slope/Trend">
									<text x="46.0" y="13.5" stroke="none" text-anchor="middle" data-name="Slope/Trend">Slope/Trend</text>
								
								</g>
							</g>
						</g>
					<g data-name="Seasonal">
							<g fill="#eee8d5" stroke="#33322E" data-name="Seasonal">
								<rect x="973.0" y="243.0" height="31.0" width="86.0" data-name="Seasonal"></rect>
							</g>
						<g transform="translate(973, 243)" font-family="Helvetica" font-size="12pt" font-weight="bold" font-style="normal" data-name="Seasonal">
								<g transform="translate(8, 8)" fill="#33322E" text-align="center" data-name="Seasonal">
									<text x="35.0" y="13.5" stroke="none" text-anchor="middle" data-name="Seasonal">Seasonal</text>
								
								</g>
							</g>
						</g>
					<g data-name="Delay A1">
							<g fill="#eee8d5" stroke="#33322E" data-name="Delay A1">
								<rect x="167.0" y="314.0" height="31.0" width="84.0" data-name="Delay A1"></rect>
							</g>
						<g transform="translate(167, 314)" font-family="Helvetica" font-size="12pt" font-weight="bold" font-style="normal" data-name="Delay A1">
								<g transform="translate(8, 8)" fill="#33322E" text-align="center" data-name="Delay A1">
									<text x="34.0" y="13.5" stroke="none" text-anchor="middle" data-name="Delay A1">Delay A1</text>
								
								</g>
							</g>
						</g>
					<g data-name="Delay A2">
							<g fill="#eee8d5" stroke="#33322E" data-name="Delay A2">
								<rect x="126.0" y="385.0" height="31.0" width="84.0" data-name="Delay A2"></rect>
							</g>
						<g transform="translate(126, 385)" font-family="Helvetica" font-size="12pt" font-weight="bold" font-style="normal" data-name="Delay A2">
								<g transform="translate(8, 8)" fill="#33322E" text-align="center" data-name="Delay A2">
									<text x="34.0" y="13.5" stroke="none" text-anchor="middle" data-name="Delay A2">Delay A2</text>
								
								</g>
							</g>
						</g>
					<g data-name="Delay A3">
							<g fill="#eee8d5" stroke="#33322E" data-name="Delay A3">
								<rect x="85.0" y="456.0" height="31.0" width="84.0" data-name="Delay A3"></rect>
							</g>
						<g transform="translate(85, 456)" font-family="Helvetica" font-size="12pt" font-weight="bold" font-style="normal" data-name="Delay A3">
								<g transform="translate(8, 8)" fill="#33322E" text-align="center" data-name="Delay A3">
									<text x="34.0" y="13.5" stroke="none" text-anchor="middle" data-name="Delay A3">Delay A3</text>
								
								</g>
							</g>
						</g>
					<g data-name="Delay AN">
							<g fill="#eee8d5" stroke="#33322E" data-name="Delay AN">
								<rect x="44.0" y="527.0" height="31.0" width="86.0" data-name="Delay AN"></rect>
							</g>
						<g transform="translate(44, 527)" font-family="Helvetica" font-size="12pt" font-weight="bold" font-style="normal" data-name="Delay AN">
								<g transform="translate(8, 8)" fill="#33322E" text-align="center" data-name="Delay AN">
									<text x="35.0" y="13.5" stroke="none" text-anchor="middle" data-name="Delay AN">Delay AN</text>
								
								</g>
							</g>
						</g>
					<g data-name="A1">
							<g fill="#eee8d5" stroke="#33322E" data-name="A1">
								<rect x="385.0" y="598.0" rx="15.5" ry="15.5" height="31.0" width="36.0" data-name="A1"></rect>
							</g>
						<g transform="translate(385, 598)" font-family="Helvetica" font-size="12pt" font-weight="normal" font-style="normal" data-name="A1">
								<g transform="translate(8, 8)" fill="#33322E" text-align="center" data-name="A1">
									<text x="10.0" y="13.5" stroke="none" text-anchor="middle" data-name="A1">A1</text>
								
								</g>
							</g>
						</g>
					<g data-name="A2">
							<g fill="#eee8d5" stroke="#33322E" data-name="A2">
								<rect x="306.0" y="598.0" rx="15.5" ry="15.5" height="31.0" width="36.0" data-name="A2"></rect>
							</g>
						<g transform="translate(306, 598)" font-family="Helvetica" font-size="12pt" font-weight="normal" font-style="normal" data-name="A2">
								<g transform="translate(8, 8)" fill="#33322E" text-align="center" data-name="A2">
									<text x="10.0" y="13.5" stroke="none" text-anchor="middle" data-name="A2">A2</text>
								
								</g>
							</g>
						</g>
					<g data-name="A3">
							<g fill="#eee8d5" stroke="#33322E" data-name="A3">
								<rect x="227.0" y="598.0" rx="15.5" ry="15.5" height="31.0" width="36.0" data-name="A3"></rect>
							</g>
						<g transform="translate(227, 598)" font-family="Helvetica" font-size="12pt" font-weight="normal" font-style="normal" data-name="A3">
								<g transform="translate(8, 8)" fill="#33322E" text-align="center" data-name="A3">
									<text x="10.0" y="13.5" stroke="none" text-anchor="middle" data-name="A3">A3</text>
								
								</g>
							</g>
						</g>
					<g data-name="AN">
							<g fill="#eee8d5" stroke="#33322E" data-name="AN">
								<rect x="68.0" y="598.0" rx="15.5" ry="15.5" height="31.0" width="39.0" data-name="AN"></rect>
							</g>
						<g transform="translate(68, 598)" font-family="Helvetica" font-size="12pt" font-weight="normal" font-style="normal" data-name="AN">
								<g transform="translate(8, 8)" fill="#33322E" text-align="center" data-name="AN">
									<text x="11.5" y="13.5" stroke="none" text-anchor="middle" data-name="AN">AN</text>
								
								</g>
							</g>
						</g>
					<g data-name="$$alpha(1-alpha)^i$$">
							<g fill="#eee8d5" stroke="#33322E" data-name="$$alpha(1-alpha)^i$$">
								<path d="M0.0 669.0 L166.0 669.0 L174.0 677.0 L174.0 700.0 L0.0 700.0 L0.0 669.0 Z" data-name="$$alpha(1-alpha)^i$$"></path>
							<path d="M166.0 669.0 L166.0 677.0 L174.0 677.0" fill="none" data-name="$$alpha(1-alpha)^i$$"></path>
							</g>
						<g transform="translate(0, 669)" font-family="Helvetica" font-size="12pt" font-weight="normal" font-style="normal" data-name="$$alpha(1-alpha)^i$$">
								<g transform="translate(8, 8)" fill="#33322E" text-align="left" data-name="$$alpha(1-alpha)^i$$">
									<text x="0.0" y="13.5" stroke="none" data-name="$$alpha(1-alpha)^i$$">$$alpha(1-alpha)^i$$</text>
								
								</g>
							</g>
						</g>
					<g data-name="Add1">
							<g fill="#eee8d5" stroke="#33322E" data-name="Add1">
								<rect x="258.0" y="669.0" rx="15.5" ry="15.5" height="31.0" width="56.0" data-name="Add1"></rect>
							</g>
						<g transform="translate(258, 669)" font-family="Helvetica" font-size="12pt" font-weight="normal" font-style="normal" data-name="Add1">
								<g transform="translate(8, 8)" fill="#33322E" text-align="center" data-name="Add1">
									<text x="20.0" y="13.5" stroke="none" text-anchor="middle" data-name="Add1">Add1</text>
								
								</g>
							</g>
						</g>
					<g data-name="Output">
							<g fill="#33322E" stroke="#33322E" data-name="Output">
								<circle r="10.0" cx="652.0" cy="755.0" data-name="Output"></circle>
							<circle r="6.0" cx="652.0" cy="755.0" stroke="none" data-name="Output"></circle>
							</g>
						</g>
					<g data-name="Delay B1">
							<g fill="#eee8d5" stroke="#33322E" data-name="Delay B1">
								<rect x="598.0" y="314.0" height="31.0" width="84.0" data-name="Delay B1"></rect>
							</g>
						<g transform="translate(598, 314)" font-family="Helvetica" font-size="12pt" font-weight="bold" font-style="normal" data-name="Delay B1">
								<g transform="translate(8, 8)" fill="#33322E" text-align="center" data-name="Delay B1">
									<text x="34.0" y="13.5" stroke="none" text-anchor="middle" data-name="Delay B1">Delay B1</text>
								
								</g>
							</g>
						</g>
					<g data-name="Delay B2">
							<g fill="#eee8d5" stroke="#33322E" data-name="Delay B2">
								<rect x="557.0" y="385.0" height="31.0" width="84.0" data-name="Delay B2"></rect>
							</g>
						<g transform="translate(557, 385)" font-family="Helvetica" font-size="12pt" font-weight="bold" font-style="normal" data-name="Delay B2">
								<g transform="translate(8, 8)" fill="#33322E" text-align="center" data-name="Delay B2">
									<text x="34.0" y="13.5" stroke="none" text-anchor="middle" data-name="Delay B2">Delay B2</text>
								
								</g>
							</g>
						</g>
					<g data-name="Delay B3">
							<g fill="#eee8d5" stroke="#33322E" data-name="Delay B3">
								<rect x="516.0" y="456.0" height="31.0" width="84.0" data-name="Delay B3"></rect>
							</g>
						<g transform="translate(516, 456)" font-family="Helvetica" font-size="12pt" font-weight="bold" font-style="normal" data-name="Delay B3">
								<g transform="translate(8, 8)" fill="#33322E" text-align="center" data-name="Delay B3">
									<text x="34.0" y="13.5" stroke="none" text-anchor="middle" data-name="Delay B3">Delay B3</text>
								
								</g>
							</g>
						</g>
					<g data-name="Delay BN">
							<g fill="#eee8d5" stroke="#33322E" data-name="Delay BN">
								<rect x="473.0" y="527.0" height="31.0" width="86.0" data-name="Delay BN"></rect>
							</g>
						<g transform="translate(473, 527)" font-family="Helvetica" font-size="12pt" font-weight="bold" font-style="normal" data-name="Delay BN">
								<g transform="translate(8, 8)" fill="#33322E" text-align="center" data-name="Delay BN">
									<text x="35.0" y="13.5" stroke="none" text-anchor="middle" data-name="Delay BN">Delay BN</text>
								
								</g>
							</g>
						</g>
					<g data-name="B1">
							<g fill="#eee8d5" stroke="#33322E" data-name="B1">
								<rect x="751.0" y="598.0" rx="15.5" ry="15.5" height="31.0" width="36.0" data-name="B1"></rect>
							</g>
						<g transform="translate(751, 598)" font-family="Helvetica" font-size="12pt" font-weight="normal" font-style="normal" data-name="B1">
								<g transform="translate(8, 8)" fill="#33322E" text-align="center" data-name="B1">
									<text x="10.0" y="13.5" stroke="none" text-anchor="middle" data-name="B1">B1</text>
								
								</g>
							</g>
						</g>
					<g data-name="B2">
							<g fill="#eee8d5" stroke="#33322E" data-name="B2">
								<rect x="672.0" y="598.0" rx="15.5" ry="15.5" height="31.0" width="36.0" data-name="B2"></rect>
							</g>
						<g transform="translate(672, 598)" font-family="Helvetica" font-size="12pt" font-weight="normal" font-style="normal" data-name="B2">
								<g transform="translate(8, 8)" fill="#33322E" text-align="center" data-name="B2">
									<text x="10.0" y="13.5" stroke="none" text-anchor="middle" data-name="B2">B2</text>
								
								</g>
							</g>
						</g>
					<g data-name="B3">
							<g fill="#eee8d5" stroke="#33322E" data-name="B3">
								<rect x="593.0" y="598.0" rx="15.5" ry="15.5" height="31.0" width="36.0" data-name="B3"></rect>
							</g>
						<g transform="translate(593, 598)" font-family="Helvetica" font-size="12pt" font-weight="normal" font-style="normal" data-name="B3">
								<g transform="translate(8, 8)" fill="#33322E" text-align="center" data-name="B3">
									<text x="10.0" y="13.5" stroke="none" text-anchor="middle" data-name="B3">B3</text>
								
								</g>
							</g>
						</g>
					<g data-name="BN">
							<g fill="#eee8d5" stroke="#33322E" data-name="BN">
								<rect x="497.0" y="598.0" rx="15.5" ry="15.5" height="31.0" width="39.0" data-name="BN"></rect>
							</g>
						<g transform="translate(497, 598)" font-family="Helvetica" font-size="12pt" font-weight="normal" font-style="normal" data-name="BN">
								<g transform="translate(8, 8)" fill="#33322E" text-align="center" data-name="BN">
									<text x="11.5" y="13.5" stroke="none" text-anchor="middle" data-name="BN">BN</text>
								
								</g>
							</g>
						</g>
					<g data-name="$$beta(1-beta)^i$$">
							<g fill="#eee8d5" stroke="#33322E" data-name="$$beta(1-beta)^i$$">
								<path d="M399.0 669.0 L547.0 669.0 L555.0 677.0 L555.0 700.0 L399.0 700.0 L399.0 669.0 Z" data-name="$$beta(1-beta)^i$$"></path>
							<path d="M547.0 669.0 L547.0 677.0 L555.0 677.0" fill="none" data-name="$$beta(1-beta)^i$$"></path>
							</g>
						<g transform="translate(399, 669)" font-family="Helvetica" font-size="12pt" font-weight="normal" font-style="normal" data-name="$$beta(1-beta)^i$$">
								<g transform="translate(8, 8)" fill="#33322E" text-align="left" data-name="$$beta(1-beta)^i$$">
									<text x="0.0" y="13.5" stroke="none" data-name="$$beta(1-beta)^i$$">$$beta(1-beta)^i$$</text>
								
								</g>
							</g>
						</g>
					<g data-name="Add2">
							<g fill="#eee8d5" stroke="#33322E" data-name="Add2">
								<rect x="644.0" y="669.0" rx="15.5" ry="15.5" height="31.0" width="56.0" data-name="Add2"></rect>
							</g>
						<g transform="translate(644, 669)" font-family="Helvetica" font-size="12pt" font-weight="normal" font-style="normal" data-name="Add2">
								<g transform="translate(8, 8)" fill="#33322E" text-align="center" data-name="Add2">
									<text x="20.0" y="13.5" stroke="none" text-anchor="middle" data-name="Add2">Add2</text>
								
								</g>
							</g>
						</g>
					<g data-name="Delay C1">
							<g fill="#eee8d5" stroke="#33322E" data-name="Delay C1">
								<rect x="974.0" y="314.0" height="31.0" width="84.0" data-name="Delay C1"></rect>
							</g>
						<g transform="translate(974, 314)" font-family="Helvetica" font-size="12pt" font-weight="bold" font-style="normal" data-name="Delay C1">
								<g transform="translate(8, 8)" fill="#33322E" text-align="center" data-name="Delay C1">
									<text x="34.0" y="13.5" stroke="none" text-anchor="middle" data-name="Delay C1">Delay C1</text>
								
								</g>
							</g>
						</g>
					<g data-name="Delay C2">
							<g fill="#eee8d5" stroke="#33322E" data-name="Delay C2">
								<rect x="933.0" y="385.0" height="31.0" width="84.0" data-name="Delay C2"></rect>
							</g>
						<g transform="translate(933, 385)" font-family="Helvetica" font-size="12pt" font-weight="bold" font-style="normal" data-name="Delay C2">
								<g transform="translate(8, 8)" fill="#33322E" text-align="center" data-name="Delay C2">
									<text x="34.0" y="13.5" stroke="none" text-anchor="middle" data-name="Delay C2">Delay C2</text>
								
								</g>
							</g>
						</g>
					<g data-name="Delay C3">
							<g fill="#eee8d5" stroke="#33322E" data-name="Delay C3">
								<rect x="887.0" y="456.0" height="31.0" width="84.0" data-name="Delay C3"></rect>
							</g>
						<g transform="translate(887, 456)" font-family="Helvetica" font-size="12pt" font-weight="bold" font-style="normal" data-name="Delay C3">
								<g transform="translate(8, 8)" fill="#33322E" text-align="center" data-name="Delay C3">
									<text x="34.0" y="13.5" stroke="none" text-anchor="middle" data-name="Delay C3">Delay C3</text>
								
								</g>
							</g>
						</g>
					<g data-name="Delay CN">
							<g fill="#eee8d5" stroke="#33322E" data-name="Delay CN">
								<rect x="809.0" y="527.0" height="31.0" width="86.0" data-name="Delay CN"></rect>
							</g>
						<g transform="translate(809, 527)" font-family="Helvetica" font-size="12pt" font-weight="bold" font-style="normal" data-name="Delay CN">
								<g transform="translate(8, 8)" fill="#33322E" text-align="center" data-name="Delay CN">
									<text x="35.0" y="13.5" stroke="none" text-anchor="middle" data-name="Delay CN">Delay CN</text>
								
								</g>
							</g>
						</g>
					<g data-name="C1">
							<g fill="#eee8d5" stroke="#33322E" data-name="C1">
								<rect x="1075.0" y="598.0" rx="15.5" ry="15.5" height="31.0" width="36.0" data-name="C1"></rect>
							</g>
						<g transform="translate(1075, 598)" font-family="Helvetica" font-size="12pt" font-weight="normal" font-style="normal" data-name="C1">
								<g transform="translate(8, 8)" fill="#33322E" text-align="center" data-name="C1">
									<text x="10.0" y="13.5" stroke="none" text-anchor="middle" data-name="C1">C1</text>
								
								</g>
							</g>
						</g>
					<g data-name="C2">
							<g fill="#eee8d5" stroke="#33322E" data-name="C2">
								<rect x="996.0" y="598.0" rx="15.5" ry="15.5" height="31.0" width="36.0" data-name="C2"></rect>
							</g>
						<g transform="translate(996, 598)" font-family="Helvetica" font-size="12pt" font-weight="normal" font-style="normal" data-name="C2">
								<g transform="translate(8, 8)" fill="#33322E" text-align="center" data-name="C2">
									<text x="10.0" y="13.5" stroke="none" text-anchor="middle" data-name="C2">C2</text>
								
								</g>
							</g>
						</g>
					<g data-name="C3">
							<g fill="#eee8d5" stroke="#33322E" data-name="C3">
								<rect x="917.0" y="598.0" rx="15.5" ry="15.5" height="31.0" width="36.0" data-name="C3"></rect>
							</g>
						<g transform="translate(917, 598)" font-family="Helvetica" font-size="12pt" font-weight="normal" font-style="normal" data-name="C3">
								<g transform="translate(8, 8)" fill="#33322E" text-align="center" data-name="C3">
									<text x="10.0" y="13.5" stroke="none" text-anchor="middle" data-name="C3">C3</text>
								
								</g>
							</g>
						</g>
					<g data-name="CN">
							<g fill="#eee8d5" stroke="#33322E" data-name="CN">
								<rect x="833.0" y="598.0" rx="15.5" ry="15.5" height="31.0" width="39.0" data-name="CN"></rect>
							</g>
						<g transform="translate(833, 598)" font-family="Helvetica" font-size="12pt" font-weight="normal" font-style="normal" data-name="CN">
								<g transform="translate(8, 8)" fill="#33322E" text-align="center" data-name="CN">
									<text x="11.5" y="13.5" stroke="none" text-anchor="middle" data-name="CN">CN</text>
								
								</g>
							</g>
						</g>
					<g data-name="Add3">
							<g fill="#eee8d5" stroke="#33322E" data-name="Add3">
								<rect x="948.0" y="669.0" rx="15.5" ry="15.5" height="31.0" width="56.0" data-name="Add3"></rect>
							</g>
						<g transform="translate(948, 669)" font-family="Helvetica" font-size="12pt" font-weight="normal" font-style="normal" data-name="Add3">
								<g transform="translate(8, 8)" fill="#33322E" text-align="center" data-name="Add3">
									<text x="20.0" y="13.5" stroke="none" text-anchor="middle" data-name="Add3">Add3</text>
								
								</g>
							</g>
						</g>
					<g data-name="Forecast">
							<g fill="#eee8d5" stroke="#33322E" data-name="Forecast">
								<path d="M603.0 810.0 L694.0 810.0 L694.0 841.0 L603.0 841.0 L611.0 825.5 Z" data-name="Forecast"></path>
							</g>
						<g transform="translate(611, 810)" font-family="Helvetica" font-size="12pt" font-weight="normal" font-style="normal" data-name="Forecast">
								<g transform="translate(8, 8)" fill="#33322E" text-align="left" data-name="Forecast">
									<text x="0.0" y="13.5" stroke="none" data-name="Forecast">Forecast</text>
								
								</g>
							</g>
						</g>
					</g>
				</g>
			</g>
		</g>
	</svg>